<svg width="46" height="55" viewBox="0 0 46 55" fill="none" xmlns="http://www.w3.org/2000/svg">
<path d="M40.2269 21.3734H5.77374C2.82825 21.3734 0.44043 23.5342 0.44043 26.1997V49.2113C0.44043 51.8768 2.82822 54.0376 5.77374 54.0376H40.2269C43.1724 54.0376 45.5602 51.8768 45.5602 49.2113V26.1996C45.5602 23.5342 43.1724 21.3734 40.2269 21.3734ZM25.3071 38.1253C25.3499 38.2864 25.3731 38.4542 25.3731 38.6267V42.755C25.3731 43.9436 24.2985 44.9161 22.985 44.9161C21.6715 44.9161 20.5969 43.9436 20.5969 42.755V38.6267C20.5969 38.449 20.6214 38.2764 20.6666 38.1109C19.3498 37.3935 18.469 36.0876 18.469 34.5955C18.469 32.3308 20.4978 30.4949 23.0003 30.4949C25.5029 30.4949 27.5316 32.3308 27.5316 34.5955C27.5317 36.0977 26.6388 37.4111 25.3071 38.1253Z" fill="#19C9A3"/>
<path d="M28.3329 1.77401C26.629 1.21311 24.8864 0.960177 23.1203 0.962665C21.3543 0.960177 19.3717 1.21311 17.6679 1.77401C9.72909 4.38752 6.84544 10.8369 7.24273 19.3745H13.8331C13.463 13.4912 15.1427 9.52686 19.2483 7.8335C21.6269 6.85248 24.3739 6.85248 26.7524 7.8335C30.858 9.52682 32.5377 13.4911 32.1677 19.3745H38.758C39.1553 10.8369 36.2717 4.38752 28.3329 1.77401Z" fill="#19C9A3"/>
</svg>
